<svg width="108" height="109" viewBox="0 0 108 109" fill="none" xmlns="http://www.w3.org/2000/svg">
<g filter="url(#filter0_ii_2462_1850)">
<path d="M29.3725 22.2286C29.7487 21.5217 30.7618 21.5217 31.138 22.2286L36.5229 32.3457C36.7633 32.7973 37.3056 32.9946 37.7799 32.8032L48.4082 28.5144C49.1507 28.2147 49.9268 28.8659 49.7606 29.6492L47.3825 40.8608C47.2764 41.3611 47.5649 41.8609 48.0513 42.0192L58.9499 45.5655C59.7113 45.8133 59.8872 46.8109 59.2564 47.3042L50.2281 54.3641C49.8251 54.6792 49.7249 55.2475 49.9958 55.6814L56.065 65.4035C56.4891 66.0827 55.9826 66.96 55.1823 66.9324L43.7281 66.5373C43.2169 66.5197 42.7748 66.8907 42.7034 67.3971L41.1035 78.7459C40.9918 79.5388 40.0398 79.8853 39.4445 79.3498L30.9241 71.6845C30.5438 71.3424 29.9667 71.3424 29.5864 71.6845L21.066 79.3498C20.4707 79.8853 19.5188 79.5388 19.407 78.7459L17.8071 67.3971C17.7357 66.8907 17.2936 66.5197 16.7824 66.5373L5.32822 66.9324C4.52793 66.96 4.02142 66.0827 4.44547 65.4035L10.5147 55.6814C10.7856 55.2475 10.6854 54.6792 10.2825 54.3641L1.25407 47.3042C0.623276 46.8109 0.799185 45.8133 1.56065 45.5655L12.4592 42.0192C12.9456 41.8609 13.2341 41.3612 13.128 40.8608L10.7499 29.6492C10.5838 28.8659 11.3598 28.2147 12.1024 28.5144L22.7306 32.8032C23.205 32.9946 23.7473 32.7973 23.9876 32.3457L29.3725 22.2286Z" fill="url(#paint0_linear_2462_1850)"/>
</g>
<g filter="url(#filter1_d_2462_1850)">
<path d="M25.7726 39.0701L31.0356 38.3108L32.9475 55.672L28.8097 56.269L25.7726 39.0701ZM32.1246 64.3499C31.2534 64.4756 30.4874 64.302 29.8263 63.8293C29.1653 63.3565 28.7754 62.7087 28.6567 61.886C28.538 61.0633 28.7289 60.3317 29.2293 59.6914C29.7263 59.0268 30.4103 58.6317 31.2815 58.506C32.1526 58.3804 32.9083 58.5678 33.5487 59.0682C34.2097 59.541 34.5996 60.1887 34.7183 61.0115C34.837 61.8342 34.6461 62.5657 34.1457 63.2061C33.6694 63.8429 32.9957 64.2242 32.1246 64.3499Z" fill="white"/>
</g>
<g filter="url(#filter2_ii_2462_1850)">
<path d="M79.4802 37.2276C79.8564 36.5207 80.8695 36.5207 81.2457 37.2276L85.8669 45.9099C86.1072 46.3615 86.6496 46.5588 87.1239 46.3674L96.2448 42.6868C96.9874 42.3872 97.7635 43.0383 97.5973 43.8217L95.5565 53.4432C95.4503 53.9436 95.7389 54.4434 96.2253 54.6016L105.578 57.645C106.34 57.8927 106.516 58.8904 105.885 59.3836L98.1368 65.4423C97.7339 65.7574 97.6336 66.3258 97.9045 66.7596L103.113 75.1029C103.537 75.7822 103.031 76.6595 102.23 76.6319L92.4005 76.2928C91.8893 76.2752 91.4473 76.6461 91.3759 77.1526L90.0029 86.8919C89.8911 87.6848 88.9391 88.0313 88.3438 87.4957L81.0318 80.9176C80.6515 80.5755 80.0744 80.5755 79.6941 80.9176L72.3821 87.4957C71.7868 88.0313 70.8348 87.6848 70.723 86.8919L69.35 77.1526C69.2786 76.6461 68.8366 76.2752 68.3254 76.2928L58.4956 76.6319C57.6953 76.6595 57.1888 75.7822 57.6129 75.1029L62.8214 66.7596C63.0923 66.3258 62.992 65.7574 62.5891 65.4423L54.8411 59.3836C54.2103 58.8904 54.3863 57.8927 55.1477 57.645L64.5006 54.6016C64.987 54.4434 65.2756 53.9436 65.1694 53.4432L63.1286 43.8217C62.9624 43.0383 63.7385 42.3872 64.481 42.6868L73.602 46.3674C74.0763 46.5588 74.6186 46.3615 74.859 45.9099L79.4802 37.2276Z" fill="url(#paint1_linear_2462_1850)"/>
</g>
<g filter="url(#filter3_d_2462_1850)">
<path d="M80.5334 49.7548L85.7284 50.8902L81.428 67.8187L77.3437 66.9261L80.5334 49.7548ZM77.6129 75.6563C76.7531 75.4684 76.0966 75.0371 75.6434 74.3625C75.1902 73.6879 75.0524 72.9445 75.2298 72.1324C75.4073 71.3203 75.8427 70.7022 76.536 70.2782C77.2345 69.8302 78.0137 69.7002 78.8736 69.8881C79.7334 70.0761 80.3754 70.5167 80.7995 71.21C81.2526 71.8846 81.3905 72.628 81.213 73.44C81.0355 74.2521 80.6001 74.8702 79.9068 75.2943C79.2374 75.7236 78.4728 75.8442 77.6129 75.6563Z" fill="white"/>
</g>
<g filter="url(#filter4_ii_2462_1850)">
<path d="M64.9164 7.99331C65.1045 7.63988 65.611 7.63988 65.7992 7.99331L69.1418 14.2735C69.262 14.4993 69.5331 14.598 69.7703 14.5023L76.3678 11.84C76.7391 11.6901 77.1271 12.0157 77.044 12.4074L75.5678 19.3669C75.5147 19.6171 75.659 19.867 75.9022 19.9461L82.6674 22.1475C83.0482 22.2714 83.1361 22.7702 82.8207 23.0168L77.2164 27.3993C77.0149 27.5568 76.9648 27.841 77.1003 28.0579L80.8677 34.0928C81.0798 34.4325 80.8265 34.8711 80.4264 34.8573L73.3162 34.6121C73.0606 34.6032 72.8396 34.7887 72.8039 35.042L71.8107 42.0867C71.7548 42.4831 71.2789 42.6564 70.9812 42.3886L65.6922 37.6304C65.5021 37.4594 65.2135 37.4594 65.0234 37.6304L59.7343 42.3886C59.4367 42.6564 58.9607 42.4831 58.9048 42.0867L57.9117 35.042C57.876 34.7887 57.655 34.6032 57.3994 34.6121L50.2892 34.8573C49.8891 34.8711 49.6358 34.4325 49.8478 34.0928L53.6153 28.0579C53.7507 27.841 53.7006 27.5568 53.4992 27.3993L47.8948 23.0168C47.5794 22.7702 47.6674 22.2714 48.0481 22.1475L54.8134 19.9461C55.0566 19.867 55.2008 19.6171 55.1478 19.3669L53.6716 12.4074C53.5885 12.0157 53.9765 11.6901 54.3478 11.84L60.9453 14.5023C61.1824 14.598 61.4536 14.4993 61.5737 14.2735L64.9164 7.99331Z" fill="url(#paint2_linear_2462_1850)"/>
</g>
<g filter="url(#filter5_d_2462_1850)">
<path d="M63.6461 18.0931L66.758 18.0292L66.6244 28.2519L64.1778 28.3021L63.6461 18.0931ZM65.5243 33.2341C65.0092 33.2447 64.5766 33.089 64.2265 32.7669C63.8763 32.4449 63.6963 32.0407 63.6863 31.5542C63.6763 31.0678 63.8396 30.6565 64.1762 30.3203C64.5126 29.9699 64.9383 29.7894 65.4534 29.7788C65.9684 29.7683 66.394 29.9313 66.7302 30.2679C67.0803 30.5899 67.2604 30.9942 67.2703 31.4806C67.2803 31.9671 67.117 32.3784 66.7804 32.7145C66.4581 33.0503 66.0394 33.2235 65.5243 33.2341Z" fill="white"/>
</g>
<g filter="url(#filter6_ii_2462_1850)">
<path d="M50.2289 74.9665C50.417 74.613 50.9235 74.613 51.1117 74.9665L53.6337 79.7049C53.7539 79.9307 54.0251 80.0294 54.2622 79.9337L59.2401 77.925C59.6114 77.7751 59.9994 78.1007 59.9163 78.4924L58.8025 83.7434C58.7494 83.9936 58.8937 84.2435 59.1369 84.3226L64.2413 85.9836C64.6221 86.1075 64.71 86.6063 64.3946 86.8529L60.1661 90.1595C59.9646 90.317 59.9145 90.6012 60.05 90.8182L62.8926 95.3716C63.1046 95.7112 62.8513 96.1499 62.4512 96.1361L57.0865 95.951C56.8309 95.9422 56.6099 96.1277 56.5742 96.3809L55.8248 101.696C55.7689 102.093 55.293 102.266 54.9953 101.998L51.0047 98.408C50.8146 98.237 50.526 98.237 50.3359 98.408L46.3452 101.998C46.0476 102.266 45.5716 102.093 45.5157 101.696L44.7664 96.3809C44.7307 96.1277 44.5097 95.9422 44.2541 95.951L38.8894 96.1361C38.4892 96.1499 38.236 95.7112 38.448 95.3716L41.2906 90.8182C41.426 90.6012 41.3759 90.317 41.1745 90.1595L36.9459 86.8529C36.6305 86.6063 36.7185 86.1075 37.0992 85.9836L42.2037 84.3226C42.4469 84.2435 42.5911 83.9936 42.5381 83.7434L41.4243 78.4924C41.3412 78.1007 41.7292 77.7751 42.1005 77.925L47.0783 79.9337C47.3155 80.0294 47.5867 79.9307 47.7068 79.7049L50.2289 74.9665Z" fill="url(#paint3_linear_2462_1850)"/>
</g>
<g filter="url(#filter7_d_2462_1850)">
<path d="M48.5898 82.7602L51.145 82.4308L51.9441 90.855L49.9353 91.114L48.5898 82.7602ZM51.482 95.0528C51.0591 95.1073 50.6892 95.0176 50.3725 94.7838C50.0557 94.5499 49.8716 94.2333 49.8201 93.8339C49.7686 93.4344 49.8664 93.0815 50.1135 92.7749C50.3591 92.4566 50.6934 92.2702 51.1163 92.2157C51.5392 92.1612 51.904 92.2575 52.2105 92.5046C52.5273 92.7385 52.7114 93.0551 52.7629 93.4546C52.8144 93.854 52.7165 94.207 52.4694 94.5135C52.2341 94.8185 51.9049 94.9983 51.482 95.0528Z" fill="white"/>
</g>
<defs>
<filter id="filter0_ii_2462_1850" x="0.869751" y="20.6985" width="58.7711" height="59.9089" filterUnits="userSpaceOnUse" color-interpolation-filters="sRGB">
<feFlood flood-opacity="0" result="BackgroundImageFix"/>
<feBlend mode="normal" in="SourceGraphic" in2="BackgroundImageFix" result="shape"/>
<feColorMatrix in="SourceAlpha" type="matrix" values="0 0 0 0 0 0 0 0 0 0 0 0 0 0 0 0 0 0 127 0" result="hardAlpha"/>
<feOffset dy="-2"/>
<feGaussianBlur stdDeviation="0.5"/>
<feComposite in2="hardAlpha" operator="arithmetic" k2="-1" k3="1"/>
<feColorMatrix type="matrix" values="0 0 0 0 0 0 0 0 0 0 0 0 0 0 0 0 0 0 0.25 0"/>
<feBlend mode="normal" in2="shape" result="effect1_innerShadow_2462_1850"/>
<feColorMatrix in="SourceAlpha" type="matrix" values="0 0 0 0 0 0 0 0 0 0 0 0 0 0 0 0 0 0 127 0" result="hardAlpha"/>
<feOffset dy="2"/>
<feGaussianBlur stdDeviation="0.5"/>
<feComposite in2="hardAlpha" operator="arithmetic" k2="-1" k3="1"/>
<feColorMatrix type="matrix" values="0 0 0 0 1 0 0 0 0 1 0 0 0 0 1 0 0 0 0.7 0"/>
<feBlend mode="normal" in2="effect1_innerShadow_2462_1850" result="effect2_innerShadow_2462_1850"/>
</filter>
<filter id="filter1_d_2462_1850" x="22.7726" y="38.3108" width="14.9799" height="32.0786" filterUnits="userSpaceOnUse" color-interpolation-filters="sRGB">
<feFlood flood-opacity="0" result="BackgroundImageFix"/>
<feColorMatrix in="SourceAlpha" type="matrix" values="0 0 0 0 0 0 0 0 0 0 0 0 0 0 0 0 0 0 127 0" result="hardAlpha"/>
<feOffset dy="3"/>
<feGaussianBlur stdDeviation="1.5"/>
<feComposite in2="hardAlpha" operator="out"/>
<feColorMatrix type="matrix" values="0 0 0 0 0 0 0 0 0 0 0 0 0 0 0 0 0 0 0.5 0"/>
<feBlend mode="normal" in2="BackgroundImageFix" result="effect1_dropShadow_2462_1850"/>
<feBlend mode="normal" in="SourceGraphic" in2="effect1_dropShadow_2462_1850" result="shape"/>
</filter>
<filter id="filter2_ii_2462_1850" x="54.4568" y="35.6975" width="51.8123" height="53.0559" filterUnits="userSpaceOnUse" color-interpolation-filters="sRGB">
<feFlood flood-opacity="0" result="BackgroundImageFix"/>
<feBlend mode="normal" in="SourceGraphic" in2="BackgroundImageFix" result="shape"/>
<feColorMatrix in="SourceAlpha" type="matrix" values="0 0 0 0 0 0 0 0 0 0 0 0 0 0 0 0 0 0 127 0" result="hardAlpha"/>
<feOffset dy="-2"/>
<feGaussianBlur stdDeviation="0.5"/>
<feComposite in2="hardAlpha" operator="arithmetic" k2="-1" k3="1"/>
<feColorMatrix type="matrix" values="0 0 0 0 0 0 0 0 0 0 0 0 0 0 0 0 0 0 0.25 0"/>
<feBlend mode="normal" in2="shape" result="effect1_innerShadow_2462_1850"/>
<feColorMatrix in="SourceAlpha" type="matrix" values="0 0 0 0 0 0 0 0 0 0 0 0 0 0 0 0 0 0 127 0" result="hardAlpha"/>
<feOffset dy="2"/>
<feGaussianBlur stdDeviation="0.5"/>
<feComposite in2="hardAlpha" operator="arithmetic" k2="-1" k3="1"/>
<feColorMatrix type="matrix" values="0 0 0 0 1 0 0 0 0 1 0 0 0 0 1 0 0 0 0.7 0"/>
<feBlend mode="normal" in2="effect1_innerShadow_2462_1850" result="effect2_innerShadow_2462_1850"/>
</filter>
<filter id="filter3_d_2462_1850" x="72.1549" y="49.7549" width="16.5735" height="31.9873" filterUnits="userSpaceOnUse" color-interpolation-filters="sRGB">
<feFlood flood-opacity="0" result="BackgroundImageFix"/>
<feColorMatrix in="SourceAlpha" type="matrix" values="0 0 0 0 0 0 0 0 0 0 0 0 0 0 0 0 0 0 127 0" result="hardAlpha"/>
<feOffset dy="3"/>
<feGaussianBlur stdDeviation="1.5"/>
<feComposite in2="hardAlpha" operator="out"/>
<feColorMatrix type="matrix" values="0 0 0 0 0 0 0 0 0 0 0 0 0 0 0 0 0 0 0.5 0"/>
<feBlend mode="normal" in2="BackgroundImageFix" result="effect1_dropShadow_2462_1850"/>
<feBlend mode="normal" in="SourceGraphic" in2="effect1_dropShadow_2462_1850" result="shape"/>
</filter>
<filter id="filter4_ii_2462_1850" x="47.7027" y="7.22827" width="35.3102" height="35.7891" filterUnits="userSpaceOnUse" color-interpolation-filters="sRGB">
<feFlood flood-opacity="0" result="BackgroundImageFix"/>
<feBlend mode="normal" in="SourceGraphic" in2="BackgroundImageFix" result="shape"/>
<feColorMatrix in="SourceAlpha" type="matrix" values="0 0 0 0 0 0 0 0 0 0 0 0 0 0 0 0 0 0 127 0" result="hardAlpha"/>
<feOffset dy="-1"/>
<feGaussianBlur stdDeviation="0.25"/>
<feComposite in2="hardAlpha" operator="arithmetic" k2="-1" k3="1"/>
<feColorMatrix type="matrix" values="0 0 0 0 0 0 0 0 0 0 0 0 0 0 0 0 0 0 0.25 0"/>
<feBlend mode="normal" in2="shape" result="effect1_innerShadow_2462_1850"/>
<feColorMatrix in="SourceAlpha" type="matrix" values="0 0 0 0 0 0 0 0 0 0 0 0 0 0 0 0 0 0 127 0" result="hardAlpha"/>
<feOffset dy="1"/>
<feGaussianBlur stdDeviation="0.25"/>
<feComposite in2="hardAlpha" operator="arithmetic" k2="-1" k3="1"/>
<feColorMatrix type="matrix" values="0 0 0 0 1 0 0 0 0 1 0 0 0 0 1 0 0 0 0.7 0"/>
<feBlend mode="normal" in2="effect1_innerShadow_2462_1850" result="effect2_innerShadow_2462_1850"/>
</filter>
<filter id="filter5_d_2462_1850" x="60.6461" y="18.0291" width="9.62463" height="21.2056" filterUnits="userSpaceOnUse" color-interpolation-filters="sRGB">
<feFlood flood-opacity="0" result="BackgroundImageFix"/>
<feColorMatrix in="SourceAlpha" type="matrix" values="0 0 0 0 0 0 0 0 0 0 0 0 0 0 0 0 0 0 127 0" result="hardAlpha"/>
<feOffset dy="3"/>
<feGaussianBlur stdDeviation="1.5"/>
<feComposite in2="hardAlpha" operator="out"/>
<feColorMatrix type="matrix" values="0 0 0 0 0 0 0 0 0 0 0 0 0 0 0 0 0 0 0.5 0"/>
<feBlend mode="normal" in2="BackgroundImageFix" result="effect1_dropShadow_2462_1850"/>
<feBlend mode="normal" in="SourceGraphic" in2="effect1_dropShadow_2462_1850" result="shape"/>
</filter>
<filter id="filter6_ii_2462_1850" x="36.7538" y="74.2014" width="27.833" height="28.4255" filterUnits="userSpaceOnUse" color-interpolation-filters="sRGB">
<feFlood flood-opacity="0" result="BackgroundImageFix"/>
<feBlend mode="normal" in="SourceGraphic" in2="BackgroundImageFix" result="shape"/>
<feColorMatrix in="SourceAlpha" type="matrix" values="0 0 0 0 0 0 0 0 0 0 0 0 0 0 0 0 0 0 127 0" result="hardAlpha"/>
<feOffset dy="-1"/>
<feGaussianBlur stdDeviation="0.25"/>
<feComposite in2="hardAlpha" operator="arithmetic" k2="-1" k3="1"/>
<feColorMatrix type="matrix" values="0 0 0 0 0 0 0 0 0 0 0 0 0 0 0 0 0 0 0.25 0"/>
<feBlend mode="normal" in2="shape" result="effect1_innerShadow_2462_1850"/>
<feColorMatrix in="SourceAlpha" type="matrix" values="0 0 0 0 0 0 0 0 0 0 0 0 0 0 0 0 0 0 127 0" result="hardAlpha"/>
<feOffset dy="1"/>
<feGaussianBlur stdDeviation="0.25"/>
<feComposite in2="hardAlpha" operator="arithmetic" k2="-1" k3="1"/>
<feColorMatrix type="matrix" values="0 0 0 0 1 0 0 0 0 1 0 0 0 0 1 0 0 0 0.7 0"/>
<feBlend mode="normal" in2="effect1_innerShadow_2462_1850" result="effect2_innerShadow_2462_1850"/>
</filter>
<filter id="filter7_d_2462_1850" x="45.5898" y="82.4309" width="10.1863" height="18.6375" filterUnits="userSpaceOnUse" color-interpolation-filters="sRGB">
<feFlood flood-opacity="0" result="BackgroundImageFix"/>
<feColorMatrix in="SourceAlpha" type="matrix" values="0 0 0 0 0 0 0 0 0 0 0 0 0 0 0 0 0 0 127 0" result="hardAlpha"/>
<feOffset dy="3"/>
<feGaussianBlur stdDeviation="1.5"/>
<feComposite in2="hardAlpha" operator="out"/>
<feColorMatrix type="matrix" values="0 0 0 0 0 0 0 0 0 0 0 0 0 0 0 0 0 0 0.5 0"/>
<feBlend mode="normal" in2="BackgroundImageFix" result="effect1_dropShadow_2462_1850"/>
<feBlend mode="normal" in="SourceGraphic" in2="effect1_dropShadow_2462_1850" result="shape"/>
</filter>
<linearGradient id="paint0_linear_2462_1850" x1="30.2553" y1="20.5701" x2="30.2553" y2="82.4729" gradientUnits="userSpaceOnUse">
<stop offset="0.197115" stop-color="#F96341"/>
<stop offset="0.625" stop-color="#D32905"/>
</linearGradient>
<linearGradient id="paint1_linear_2462_1850" x1="80.3629" y1="35.5691" x2="80.3629" y2="90.4058" gradientUnits="userSpaceOnUse">
<stop offset="0.197115" stop-color="#F96341"/>
<stop offset="0.625" stop-color="#D32905"/>
</linearGradient>
<linearGradient id="paint2_linear_2462_1850" x1="65.3578" y1="7.16406" x2="65.3578" y2="44.1316" gradientUnits="userSpaceOnUse">
<stop offset="0.153846" stop-color="#F96341"/>
<stop offset="0.682692" stop-color="#D32905"/>
</linearGradient>
<linearGradient id="paint3_linear_2462_1850" x1="50.6703" y1="74.1372" x2="50.6703" y2="103.512" gradientUnits="userSpaceOnUse">
<stop offset="0.153846" stop-color="#F96341"/>
<stop offset="0.682692" stop-color="#D32905"/>
</linearGradient>
</defs>
</svg>
