<svg width="1169" height="383" viewBox="0 0 1169 383" fill="none" xmlns="http://www.w3.org/2000/svg">
<path d="M839.388 375.229V330.652L853.975 327.337C857.29 326.979 858.004 325.857 858.004 322.236V179.631C858.004 176.724 857.29 175.602 853.975 174.531L839.388 170.91V126.588H950.524V171.216L935.886 174.888C932.622 175.959 931.857 177.081 931.857 179.988V322.44C931.857 325.704 932.622 326.469 935.529 327.54L950.524 331.57V375.433L839.388 375.229Z" fill="black"/>
<path d="M637.059 375.218L575.09 179.059C574.873 178.211 574.408 177.446 573.753 176.865C573.099 176.283 572.285 175.91 571.417 175.795L552.087 172.531V127.291H677.147V172.531L662.56 176.917C661.149 177.103 659.854 177.795 658.916 178.865C657.977 179.934 657.46 181.309 657.46 182.731C657.709 186.817 658.445 190.858 659.653 194.768L686.277 299.784H688.062L714.583 194.921C715.751 191.001 716.486 186.965 716.777 182.884C716.692 181.43 716.099 180.051 715.102 178.988C714.104 177.926 712.766 177.247 711.319 177.07L697.089 172.684V127.444H818.885V172.327L798.841 176.305C797.935 176.488 797.104 176.934 796.45 177.587C795.797 178.24 795.351 179.072 795.168 179.977L735.036 375.371L637.059 375.218Z" fill="black"/>
<path d="M975.363 357.317C975.604 334.698 977.205 312.113 980.157 289.687H1039.98L1045.85 318.197C1053.51 320.771 1061.53 322.131 1069.62 322.227C1083.49 322.227 1092.62 316.004 1092.62 306.11C1092.62 293.716 1076.91 288.972 1058.24 283.464C1020.96 272.141 976.383 257.503 976.383 199.717C976.383 141.93 1014.38 122.957 1071.81 122.957C1108.38 122.957 1132.15 132.444 1157.7 144.531C1158.07 165.922 1156.74 187.309 1153.72 208.489H1093.84L1090.94 183.294C1085.14 180.855 1078.91 179.607 1072.63 179.622C1059.11 179.622 1050.34 182.886 1050.34 193.494C1050.34 205.939 1067.17 213.284 1085.43 219.455C1121.13 231.135 1166.62 247.252 1166.62 300.295C1166.62 353.339 1132.96 379.248 1069.36 379.248C1036.78 379.045 1004.67 371.551 975.363 357.317Z" fill="black"/>
<path d="M146.612 127.292V172.429L164.514 177.53C171.96 179.519 171.858 183.344 167.982 194.922L133.3 300.04H130.801L104.024 194.922C101.015 183.701 101.066 179.009 107.492 177.53L126.516 172.429V127.292H0.385437V172.429L20.7867 176.408C22.7758 176.918 23.2349 177.887 23.7449 179.876L84.9488 375.218H172.929L203.531 271.427L234.133 375.065H322.369L383.573 179.723C383.807 178.869 384.259 178.091 384.885 177.465C385.511 176.839 386.289 176.387 387.143 176.153L406.881 172.276V127.139H280.852V172.276L299.876 177.377C306.354 178.856 306.354 183.548 303.344 194.769L276.568 299.886H274.12L239.233 194.922C235.408 183.344 235.255 179.621 242.702 177.53L260.604 172.429V127.292H146.612Z" fill="black"/>
<path d="M464.566 263.223H497.565V253.838C497.565 243.638 491.751 238.231 481.244 238.231C470.737 238.231 464.566 243.689 464.566 253.838V263.223ZM394.232 306.015V258.174C394.232 214.311 428.303 185.29 479.816 185.29C531.329 185.29 565.348 214.311 565.348 258.174V298.976H464.566V308.769C464.566 319.275 476.909 326.161 490.067 326.161C503.226 326.161 516.181 320.347 518.323 311.319H565.093V347.021C546.273 369.157 517.609 378.949 487.874 378.949C431.975 378.898 394.232 349.877 394.232 306.015Z" fill="black"/>
<path d="M896.563 104.437C918.252 104.437 935.835 86.8537 935.835 65.1641C935.835 43.4745 918.252 25.8916 896.563 25.8916C874.873 25.8916 857.29 43.4745 857.29 65.1641C857.29 86.8537 874.873 104.437 896.563 104.437Z" fill="black"/>
</svg>
